<?xml version="1.0" encoding="utf-8"?>
<!-- Generator: Adobe Illustrator 18.1.1, SVG Export Plug-In . SVG Version: 6.00 Build 0)  -->
<svg version="1.1" id="Layer_1" xmlns="http://www.w3.org/2000/svg" xmlns:xlink="http://www.w3.org/1999/xlink" x="0px" y="0px"
	 width="611.7px" height="135.2px" viewBox="0.3 509 611.7 135.2" enable-background="new 0.3 509 611.7 135.2"
	 xml:space="preserve">
<g id="logo">
	<path id="path-1" fill="#878787" d="M604.6,633.4v-14c0-2.3-0.4-4.2-2.1-4.2c-0.9,0-1.8,0.6-2.2,2.2c-0.1,0.4-0.2,1.2-0.2,1.7v14.3
		h-5.6v-32.6h5.6v12h0.1c0.5-0.8,1.1-1.5,1.8-2c0.8-0.5,1.8-0.8,2.8-0.8c3.9,0,5.4,3.6,5.4,9.4v14L604.6,633.4L604.6,633.4z
		 M590.8,626.5c0,4.7-3.1,7.3-7.4,7.3c-1.8,0-3.8-0.5-4.8-1.3l1-4.5c0.8,0.6,2.4,1.2,3.8,1.2c1.5,0,2.3-0.7,2.3-2.1
		c0-1.2-0.6-1.9-2.4-3.1c-3.4-2.1-4.2-4.5-4.2-6.6c0-4.2,2.7-7.3,6.9-7.3c1.8,0,3.1,0.5,4.2,1l-1,4.5c-0.8-0.5-1.8-0.9-2.9-0.9
		c-1.4,0-2.1,0.9-2.1,2c0,1,0.5,1.6,2.4,2.9C589.6,621.4,590.8,623.8,590.8,626.5z M572,607.7c-1.5,0-2.8-1.4-2.8-3.3
		c0-2.1,1.3-3.3,2.9-3.3c1.6,0,2.9,1.3,2.9,3.3C575,606.3,573.7,607.7,572,607.7z M558.9,600.9h5.6v32.6h-5.6V600.9z M554.1,630.9
		c0,4.9-0.8,7.7-2.5,9.5c-1.5,1.6-3.7,2.5-6.8,2.5c-1.9,0-3.7-0.4-5.2-1.1l1-4.8c1.1,0.5,2.4,1,4,1c2.8,0,3.9-2.1,3.9-5.6V631h-0.1
		c-0.7,1.5-2.2,2.3-3.8,2.3c-4.7,0-6.6-5.7-6.6-11.2c0-7.7,3.2-12.1,7.1-12.1c1.7,0,3,0.9,3.9,2.7h0.1l0.3-2.3h4.9
		c-0.1,2.1-0.2,4.5-0.2,7.3L554.1,630.9L554.1,630.9z M548.6,618.8c0-0.6-0.1-1.2-0.2-1.7c-0.3-1-0.9-1.9-1.8-1.9
		c-2,0-2.8,3-2.8,6.8c0,4.3,1.1,6.4,2.7,6.4c0.7,0,1.5-0.4,1.9-1.6c0.2-0.5,0.3-1.2,0.3-1.8L548.6,618.8L548.6,618.8z M528.5,619
		c0-2-0.4-3.8-2.1-3.8c-0.9,0-1.7,0.7-2.1,2.1c-0.2,0.5-0.3,1.2-0.3,2.1v14h-5.6v-16.1c0-2.5-0.1-4.8-0.2-6.9h4.8l0.3,2.6h0.1
		c1.1-1.8,2.9-3,5.1-3c4,0,5.6,3.5,5.6,8.6v14.8h-5.6V619z M501.2,601.8h12.5v5.4h-6.9v7.3h6.6v5.1h-6.6v8.6h7.5v5.4h-13.1
		L501.2,601.8L501.2,601.8z M482.6,619c0-2-0.4-3.8-2.1-3.8c-0.9,0-1.7,0.7-2.1,2.1c-0.2,0.5-0.3,1.2-0.3,2.1v14h-5.6v-16.1
		c0-2.5-0.1-4.8-0.2-6.9h4.8l0.3,2.6h0.1c1.1-1.8,2.9-3,5.1-3c4,0,5.6,3.5,5.6,8.6v14.8h-5.6L482.6,619L482.6,619z M464.8,607.7
		c-1.5,0-2.8-1.4-2.8-3.3c0-2.1,1.3-3.3,2.9-3.3s2.9,1.3,2.9,3.3S466.5,607.7,464.8,607.7z M452.3,631.3L452.3,631.3
		c-1.2,1.8-2.9,2.6-4.7,2.6c-3.2,0-5.5-2.9-5.5-7c0-6,4.8-8.5,9.6-8.6v-0.5c0-1.8-1-3.1-3-3.1c-1.7,0-3,0.5-4.3,1.3l-1-4.2
		c1.2-0.7,3.6-1.7,6.5-1.7c6.4,0,7.4,4.9,7.4,9.6v8.6c0,1.8,0.1,3.7,0.3,5.3h-5.1L452.3,631.3z M451.8,622.3c-1.9,0-4.5,0.7-4.5,3.9
		c0,2.3,1.2,3.1,2,3.1c0.9,0,1.9-0.6,2.3-2c0.1-0.3,0.1-0.7,0.1-1.1v-3.9H451.8z M432.7,600.9h5.6v32.6h-5.6V600.9z M419.5,621.7
		c-0.4,0-0.8,0-1.1,0v11.8h-5.6v-31.3c1.6-0.4,3.7-0.6,5.9-0.6c3.3,0,6,0.5,7.8,2.4c1.7,1.6,2.5,4.3,2.5,7c0,3.4-0.9,5.8-2.4,7.6
		C424.7,620.8,421.8,621.7,419.5,621.7z M419.8,606.7c-0.5,0-1,0.1-1.4,0.2v9.8c0.3,0.1,0.6,0.1,0.9,0.1c2.8,0,4.1-2.2,4.1-5.2
		C423.4,608.8,422.4,606.7,419.8,606.7z M394.2,619c0-2-0.4-3.8-2.1-3.8c-0.9,0-1.7,0.7-2.1,2.1c-0.2,0.5-0.3,1.2-0.3,2.1v14h-5.6
		v-16.1c0-2.5-0.1-4.8-0.2-6.9h4.8l0.3,2.6h0.1c1.1-1.8,2.9-3,5.1-3c4,0,5.6,3.5,5.6,8.6v14.8h-5.6L394.2,619L394.2,619z
		 M376.4,607.7c-1.5,0-2.8-1.4-2.8-3.3c0-2.1,1.3-3.3,2.9-3.3s2.9,1.3,2.9,3.3S378.1,607.7,376.4,607.7z M358.5,625.3
		c0,2.7,1,3.3,2.1,3.3c0.6,0,1,0,1.5-0.1v4.8c-0.8,0.2-1.9,0.4-3.4,0.4c-1.6,0-3-0.4-4-1.5c-1.2-1.2-1.8-3-1.8-6.6v-10.9h-2.5v-4.4
		h2.5v-4.7l5.6-1.5v6.2h4.1v4.4h-4.1L358.5,625.3L358.5,625.3z M341.5,619.5c0-2.3-0.4-4.2-2.1-4.2c-0.9,0-1.8,0.6-2.2,2.2
		c-0.1,0.4-0.2,1.2-0.2,1.7v14.3h-5.6v-32.6h5.6v12h0.1c0.5-0.8,1.1-1.5,1.8-2c0.8-0.5,1.8-0.8,2.8-0.8c3.9,0,5.4,3.6,5.4,9.4v14
		h-5.6L341.5,619.5L341.5,619.5z M326.7,630.9c0,4.9-0.8,7.7-2.5,9.5c-1.5,1.6-3.7,2.5-6.8,2.5c-1.9,0-3.7-0.4-5.2-1.1l1-4.8
		c1.1,0.5,2.4,1,4,1c2.8,0,3.9-2.1,3.9-5.6V631H321c-0.7,1.5-2.2,2.3-3.8,2.3c-4.7,0-6.6-5.7-6.6-11.2c0-7.7,3.2-12.1,7.1-12.1
		c1.7,0,3,0.9,3.9,2.7h0.1l0.3-2.3h4.9c-0.1,2.1-0.2,4.5-0.2,7.3L326.7,630.9L326.7,630.9z M321.1,618.8c0-0.6-0.1-1.2-0.2-1.7
		c-0.3-1-0.9-1.9-1.8-1.9c-2,0-2.8,3-2.8,6.8c0,4.3,1.1,6.4,2.7,6.4c0.7,0,1.5-0.4,1.9-1.6c0.2-0.5,0.3-1.2,0.3-1.8L321.1,618.8
		L321.1,618.8z M301.6,631L301.6,631c-1.1,1.6-2.8,2.8-4.9,2.8c-4,0-5.6-3.3-5.6-9.5v-13.9h5.7v13.3c0,3,0.5,4.9,2.1,4.9
		c0.9,0,1.5-0.8,1.8-1.6c0.2-0.5,0.3-1.2,0.3-2v-14.7h5.6v16c0,2.4,0.1,4.9,0.2,7H302L301.6,631z M281.4,631.3L281.4,631.3
		c-1.2,1.8-2.9,2.6-4.7,2.6c-3.2,0-5.5-2.9-5.5-7c0-6,4.8-8.5,9.6-8.6v-0.5c0-1.8-1-3.1-3-3.1c-1.7,0-3,0.5-4.3,1.3l-1-4.2
		c1.2-0.7,3.6-1.7,6.5-1.7c6.4,0,7.4,4.9,7.4,9.6v8.6c0,1.8,0.1,3.7,0.3,5.3h-5.1L281.4,631.3z M280.9,622.3c-1.9,0-4.5,0.7-4.5,3.9
		c0,2.3,1.2,3.1,2,3.1c0.9,0,1.9-0.6,2.3-2c0.1-0.3,0.1-0.7,0.1-1.1v-3.9H280.9z M263.8,633.4h-5.6v-26.1h-5.1v-5.7H269v5.7h-5.1
		v26.1H263.8z M232.8,624.2c0.1,3.6,2,4.9,4.5,4.9c1.6,0,3-0.4,4-0.7l0.8,4.4c-1.5,0.6-3.6,1-5.8,1c-5.7,0-8.8-4.2-8.8-11.3
		c0-7.7,3.6-12.3,8.4-12.3c4.5,0,7.1,3.9,7.1,10.9c0,1.6,0,2.5-0.2,3.2L232.8,624.2L232.8,624.2z M235.4,614.5c-1.8,0-2.6,3-2.6,5.3
		h5C237.8,616.8,237.1,614.5,235.4,614.5z M224.4,626.5c0,4.7-3.1,7.3-7.4,7.3c-1.8,0-3.8-0.5-4.8-1.3l1-4.5
		c0.8,0.6,2.4,1.2,3.8,1.2c1.5,0,2.3-0.7,2.3-2.1c0-1.2-0.6-1.9-2.4-3.1c-3.4-2.1-4.2-4.5-4.2-6.6c0-4.2,2.7-7.3,6.9-7.3
		c1.8,0,3.1,0.5,4.2,1l-1,4.5c-0.8-0.5-1.8-0.9-2.9-0.9c-1.4,0-2.1,0.9-2.1,2c0,1,0.5,1.6,2.4,2.9
		C223.2,621.4,224.4,623.8,224.4,626.5z M199.3,624.2c0.1,3.6,2,4.9,4.5,4.9c1.6,0,3-0.4,4-0.7l0.8,4.4c-1.5,0.6-3.6,1-5.8,1
		c-5.7,0-8.8-4.2-8.8-11.3c0-7.7,3.6-12.3,8.4-12.3c4.5,0,7.1,3.9,7.1,10.9c0,1.6,0,2.5-0.2,3.2L199.3,624.2L199.3,624.2z
		 M201.9,614.5c-1.8,0-2.6,3-2.6,5.3h5C204.3,616.8,203.6,614.5,201.9,614.5z M184.2,619c0-2-0.4-3.8-2.1-3.8
		c-0.9,0-1.7,0.7-2.1,2.1c-0.2,0.5-0.3,1.2-0.3,2.1v14h-5.6v-16.1c0-2.5-0.1-4.8-0.2-6.9h4.8l0.3,2.6h0.1c1.1-1.8,2.9-3,5.1-3
		c4,0,5.6,3.5,5.6,8.6v14.8h-5.6V619z M166.4,607.7c-1.5,0-2.8-1.4-2.8-3.3c0-2.1,1.3-3.3,2.9-3.3c1.6,0,2.9,1.3,2.9,3.3
		C169.4,606.3,168.1,607.7,166.4,607.7z M153.3,619.5c0-2.3-0.4-4.2-2.1-4.2c-0.9,0-1.8,0.6-2.2,2.2c-0.1,0.4-0.2,1.2-0.2,1.7v14.3
		h-5.6v-32.6h5.6v12h0.1c0.5-0.8,1.1-1.5,1.8-2c0.8-0.5,1.8-0.8,2.8-0.8c3.9,0,5.4,3.6,5.4,9.4v14h-5.6V619.5L153.3,619.5z
		 M136.6,606.8c-3.2,0-6,3-6,10.9c0,7.6,2.6,10.6,6,10.6c0.9,0,2-0.2,2.7-0.5l0.6,5.2c-0.8,0.4-2.4,0.7-4.4,0.7
		c-7.4,0-10.9-6.7-10.9-15.7c0-12,6-16.6,11.6-16.6c2,0,3.3,0.4,3.9,0.9l-0.9,5.2C138.5,607.2,137.8,606.8,136.6,606.8z
		 M169.3,633.4h-5.6v-23h5.6V633.4z M379.3,633.4h-5.6v-23h5.6V633.4z M467.7,633.4h-5.6v-23h5.6V633.4z M575,633.4h-5.6v-23h5.6
		V633.4z"/>
	<path id="path-2" fill="#FBAA1A" d="M612,575.4v6.3h-32.5V524h31.2v6.3H587v18.2h22.4v6.2H587v20.8L612,575.4L612,575.4z
		 M572.8,565.9c0,8.9-6.6,16.6-20.2,16.6c-5.6,0-11.6-1.6-14.7-3.7l1.9-6.3c3.3,2.1,8.2,3.8,13.4,3.8c7.6,0,12.1-4,12.1-9.9
		c0-5.4-3.1-8.5-10.9-11.5c-9.4-3.3-15.2-8.2-15.2-16.4c0-9,7.5-15.7,18.7-15.7c5.9,0,10.2,1.4,12.8,2.8l-2.1,6.1
		c-1.9-1-5.7-2.7-11-2.7c-7.9,0-10.9,4.7-10.9,8.7c0,5.4,3.5,8.1,11.5,11.1C567.8,552.8,572.8,557.4,572.8,565.9z M502,523.9h31.2
		v6.3h-23.7v18.2h22.4v6.2h-22.4v20.8h25v6.3H502V523.9z M466.6,552.4c-4-6.4-7.9-13-10.8-19.3l-0.3,0.1c0.4,7.3,0.6,14.2,0.6,23.8
		v24.6h-7v-57.7h8.1l18.5,29.2c4.3,6.8,7.6,12.8,10.4,18.8l0.2-0.1c-0.7-7.7-0.9-14.7-0.9-23.7v-24.2h7v57.7h-7.5L466.6,552.4z
		 M432,523.9h7.5v57.7H432V523.9z M415,554.7h-27.9v27h-7.5V524h7.5v24.2H415V524h7.5v57.7H415V554.7z M360.3,529.3
		c-13.5,0-22.5,8.7-22.5,23.8c0,14.1,8.1,23.2,22.2,23.2c4.5,0,9.2-0.9,12.2-2.4l1.5,5.9c-2.7,1.4-8.2,2.7-15.2,2.7
		c-16.3,0-28.5-10.3-28.5-29.2c0-18.1,12.2-30.3,30.2-30.3c7.2,0,11.7,1.5,13.7,2.6l-1.9,6.1C369.2,530.3,365.1,529.3,360.3,529.3z
		 M285.6,582.7c-15.2,0-26-11.8-26-29.3c0-18.3,11.4-30.3,26.8-30.3c15.8,0,26,12.1,26,29.2C312.4,572.2,300.3,582.7,285.6,582.7z
		 M286.1,529.2c-12.3,0-18.5,11.4-18.5,24.1c0,12.3,6.7,23.4,18.4,23.4c11.8,0,18.5-10.9,18.5-24C304.5,541,298.5,529.2,286.1,529.2
		z M240.5,581.7H233v-24.5L214.8,524h8.5l8.1,15.9c2.2,4.4,3.9,7.9,5.7,11.9h0.2c1.6-3.8,3.6-7.5,5.8-11.9l8.3-15.9h8.5l-19.4,33
		L240.5,581.7L240.5,581.7z M187.1,582.7c-15.2,0-26-11.8-26-29.3c0-18.3,11.4-30.3,26.8-30.3c15.8,0,26,12.1,26,29.2
		C213.9,572.2,201.8,582.7,187.1,582.7z M187.6,529.2c-12.3,0-18.5,11.4-18.5,24.1c0,12.3,6.7,23.4,18.4,23.4
		c11.8,0,18.5-10.9,18.5-24C206,541,200,529.2,187.6,529.2z M142,581.7h-7.5v-24.5L116.3,524h8.5l8.1,15.9c2.2,4.4,3.9,7.9,5.7,11.9
		h0.2c1.6-3.8,3.6-7.5,5.8-11.9l8.3-15.9h8.5L142,557.2V581.7L142,581.7z"/>
	
		<radialGradient id="SVGID_1_" cx="6641.6362" cy="13439.8809" r="188.2197" gradientTransform="matrix(-0.2141 0 0 -4.282716e-002 1481.2491 1209.7418)" gradientUnits="userSpaceOnUse">
		<stop  offset="0" style="stop-color:#929292"/>
		<stop  offset="1" style="stop-color:#FFFFFF"/>
	</radialGradient>
	<ellipse fill="url(#SVGID_1_)" cx="59" cy="634.2" rx="56.1" ry="10"/>
	
		<linearGradient id="SVGID_2_" gradientUnits="userSpaceOnUse" x1="60.1" y1="805.75" x2="60.1" y2="925.35" gradientTransform="matrix(1 0 0 -1 0 1437.25)">
		<stop  offset="0" style="stop-color:#FCD962"/>
		<stop  offset="0.6481" style="stop-color:#FCA92E"/>
		<stop  offset="1" style="stop-color:#FC9417"/>
	</linearGradient>
	<circle fill="url(#SVGID_2_)" cx="60.1" cy="571.7" r="59.8"/>
	<g>
		<path fill="#F2F2F2" d="M3.7,567.8c4.7-4.5,10.4-5.7,16.6-6.2c7.7-0.6,14.4,1.8,20.9,5.2c4.5,2.4,8.4,6.1,12.9,8.5
			c1.6,0.9,0.9-1.9,0.9-2.6c0.6-7.8,1.1-15.7-0.9-23.2c-1.6-6.1-13.4-10.5-22.2-9.4c-2.4,0.3-6.5,2.2-7.1-0.5
			c-0.8-3.7,3.7-3.9,6.4-4.4c10-1.9,17.8,2.8,24.8,9c1.9,1.7,1.6,0.2,2.1-0.8c3.8-7.9,11.3-11.1,18.8-14.3c3.4-1.5,7-2.4,10.5-3.6
			c1.1,0,2.2,0,3.3,0c-0.6,5.7-5.4,8.1-9.1,11.1c-5.5,4.5-11.8,8.2-18.3,11.1c-2.4,1.1-3.3,2.9-3.3,5.3c0,6.6,0,13.2,0,19.8
			c0,0.3,0.2,0.5,0.2,0.8c0.1-0.1,0.3-0.2,0.4-0.4c9.6-13.2,23.9-18.7,38.4-23.7c3.4-1.2,7-1.9,10.5-2.6c0.8-0.2,2.1,0.1,2.5,0.6
			c0.4,0.6,0.2,1.9-0.3,2.6c-7.1,10.2-17.1,17-27.5,23.3c-6,3.7-12.6,6.6-18.7,10.2c-5.3,3.1-3.5,8.8-3.9,13.6c-2.3,1-4.5,2-6.8,3
			c1.8-21.8-10.5-26.1-32.3-30c-6.4-1.1-12.7,2.2-19,0.1C3.7,569.5,3.7,568.7,3.7,567.8z"/>
		<path fill="#EAEAEA" d="M54.9,600.3c2.3-1,4.5-2,6.8-3c0,11.1,0,22.2-0.1,33.3c0,0.5-0.6,0.9-0.9,1.4c-1.7,0-3.4,0-5,0
			c-2.9-2.7-1.2-6.2-1.3-9.2C54.1,615.3,54.7,607.8,54.9,600.3z"/>
	</g>
	<path opacity="0.3" fill="#FFFFFF" enable-background="new    " d="M4,509v39c0,0.6-0.1,1.1-0.2,1.6c11.8,7.2,26.1,11.4,41.4,11.4
		c35.3,0,64.8-22.2,72.6-52H4z"/>
</g>
</svg>
